<svg xmlns="http://www.w3.org/2000/svg" viewBox="0 0 24 24" fill="currentColor">
  <path d="M13.983 11.078h2.119a.186.186 0 00.186-.185V9.006a.186.186 0 00-.186-.186h-2.119a.186.186 0 00-.185.185v1.888c0 .102.083.185.185.185zm-2.954-5.43h2.118a.186.186 0 00.186-.185V3.574a.186.186 0 00-.186-.186h-2.118a.186.186 0 00-.185.185v1.89c0 .101.083.184.185.184zm0 2.716h2.118a.186.186 0 00.186-.185V6.29a.186.186 0 00-.186-.185h-2.118a.186.186 0 00-.185.185v1.888c0 .102.083.185.185.185zm-2.93 0h2.12a.186.186 0 00.185-.185V6.29a.186.186 0 00-.185-.185H8.1a.186.186 0 00-.185.185v1.888c0 .102.082.185.185.185zm0 2.716h2.12a.186.186 0 00.185-.185V9.006a.186.186 0 00-.185-.185H8.1a.186.186 0 00-.185.185v1.888c0 .102.082.185.185.185zm-2.964 0h2.12a.186.186 0 00.184-.185V9.006a.186.186 0 00-.184-.185H5.135a.186.186 0 00-.185.185v1.888c0 .102.083.185.185.185zm5.893 2.715h2.119a.186.186 0 00.186-.185v-1.888a.186.186 0 00-.186-.185h-2.119a.186.186 0 00-.185.185v1.888c0 .102.083.185.185.185zm-2.93 0h2.12a.186.186 0 00.185-.185v-1.888a.186.186 0 00-.185-.185H8.1a.186.186 0 00-.185.185v1.888c0 .102.082.185.185.185zm-2.964 0h2.12a.186.186 0 00.184-.185v-1.888a.186.186 0 00-.184-.185H5.135a.186.186 0 00-.185.185v1.888c0 .102.083.185.185.185zm2.964-2.715h2.12a.186.186 0 00.184-.185V6.29a.186.186 0 00-.184-.185H5.135a.186.186 0 00-.185.185v1.888c0 .102.083.185.185.185zM24 13.314c0 .61-.242 1.195-.673 1.626a2.305 2.305 0 01-1.625.673H2.298A2.305 2.305 0 01.673 14.94 2.305 2.305 0 010 13.314V2.298C0 1.688.242 1.103.673.672A2.305 2.305 0 012.298 0h19.404A2.305 2.305 0 0124 2.298v11.016z"/>
</svg> 