<svg xmlns="http://www.w3.org/2000/svg" viewBox="0 0 24 24" fill="currentColor">
  <path d="M0 0h24v24H0V0zm22.034 18.276c-.175-1.095-.888-2.015-3.003-2.873-.736-.345-1.554-.585-1.797-1.14-.091-.33-.105-.51-.046-.705.15-.646.915-.84 1.515-.66.39.12.75.42.976.9 1.034-.676 1.034-.676 1.755-1.125-.27-.42-.404-.601-.586-.78-.63-.705-1.469-1.065-2.834-1.034l-.705.089c-.676.165-1.32.525-1.71 1.005-1.14 1.291-.811 3.541.569 4.471 1.365 1.02 3.361 1.244 3.616 2.205.24 1.17-.87 1.545-1.966 1.41-.811-.18-1.26-.586-1.755-1.336l-1.83 1.051c-.21.48-.345.855.15 1.71.75 1.5 2.97 1.68 4.321.975.405-.195.675-.405.975-.705.165-.18.18-.18.345-.015.27.27.33.42.345.69.015.375-.045.69-.09.975zM8.983 7.89c-.705-.375-1.14-.3-1.26-.225-.24.12-.345.33-.345.525 0 .405.195.66.495.84.42.24 1.065.3 1.35.195.27-.105.27-.27.27-.48 0-.405-.225-.66-.51-.855z"/>
</svg> 